<svg viewBox="0 0 39.8667 39.8667" fill="none" xmlns="http://www.w3.org/2000/svg" x="0" y="0"><path id="Icon_3" d="M29.9249,9.9933h0.018M10.8969,1.8383h18.122c5.004,0 9.061,4.057 9.061,9.061v18.122c0,5.004 -4.057,9.061 -9.061,9.061h-18.122c-5.005,0 -9.061,-4.057 -9.061,-9.061v-18.122c0,-5.004 4.056,-9.061 9.061,-9.061zM27.2069,18.8183c0.223,1.509 -0.034,3.049 -0.737,4.402c-0.702,1.354 -1.813,2.451 -3.175,3.137c-1.362,0.685 -2.905,0.924 -4.41,0.681c-1.506,-0.242 -2.896,-0.953 -3.975,-2.031c-1.078,-1.078 -1.788,-2.468 -2.031,-3.974c-0.242,-1.505 -0.003,-3.048 0.682,-4.41c0.686,-1.362 1.783,-2.473 3.137,-3.176c1.353,-0.702 2.893,-0.959 4.401,-0.736c1.539,0.228 2.963,0.945 4.063,2.045c1.1,1.1 1.816,2.524 2.045,4.062z" stroke="#1E1E1E" stroke-width="3.62424" stroke-linecap="round" stroke-linejoin="round"/></svg>