<svg viewBox="0 0 39.8667 38.0545" fill="none" xmlns="http://www.w3.org/2000/svg" x="0" y="0"><g id="Icon_2">
<path d="M27.2035,12.7113c2.884,0 5.649,1.146 7.688,3.185c2.04,2.039 3.185,4.805 3.185,7.689v12.685h-7.249v-12.685c0,-0.962 -0.382,-1.884 -1.061,-2.563c-0.68,-0.68 -1.602,-1.062 -2.563,-1.062c-0.961,0 -1.883,0.382 -2.563,1.062c-0.68,0.679 -1.062,1.601 -1.062,2.563v12.685h-7.248v-12.685c0,-2.884 1.145,-5.65 3.184,-7.689c2.039,-2.039 4.805,-3.185 7.689,-3.185z" stroke="#1E1E1E" stroke-width="3.62424" stroke-linecap="round" stroke-linejoin="round"/>
<path d="M9.0815,14.5233h-7.249v21.747h7.249z" stroke="#1E1E1E" stroke-width="3.62424" stroke-linecap="round" stroke-linejoin="round"/>
<path d="M5.4565,9.0873c2.002,0 3.625,-1.623 3.625,-3.625c0,-2.001 -1.623,-3.624 -3.625,-3.624c-2.001,0 -3.624,1.623 -3.624,3.624c0,2.002 1.623,3.625 3.624,3.625z" stroke="#1E1E1E" stroke-width="3.62424" stroke-linecap="round" stroke-linejoin="round"/>
</g></svg>